<svg xmlns="http://www.w3.org/2000/svg" xmlns:xlink="http://www.w3.org/1999/xlink" width="37.211" height="38.109" viewBox="0 0 37.211 38.109">
  <defs>
    <filter id="arrow-up-solid" x="0" y="0" width="37.211" height="38.109" filterUnits="userSpaceOnUse">
      <feOffset dx="2" dy="2" input="SourceAlpha"/>
      <feGaussianBlur result="blur"/>
      <feFlood flood-color="#080a1e" flood-opacity="0.231"/>
      <feComposite operator="in" in2="blur"/>
      <feComposite in="SourceGraphic"/>
    </filter>
  </defs>
  <g transform="matrix(1, 0, 0, 1, 0, 0)" filter="url(#arrow-up-solid)">
    <path id="arrow-up-solid-2" data-name="arrow-up-solid" d="M7.942,52.131,6.2,50.392a1.873,1.873,0,0,1,0-2.656L21.427,32.5a1.873,1.873,0,0,1,2.656,0L39.309,47.727a1.873,1.873,0,0,1,0,2.656l-1.74,1.74a1.883,1.883,0,0,1-2.688-.031l-8.988-9.434v22.52a1.876,1.876,0,0,1-1.881,1.881H21.506a1.876,1.876,0,0,1-1.881-1.881V42.658l-9,9.442A1.869,1.869,0,0,1,7.942,52.131Z" transform="translate(-5.15 -31.45)" fill="#fff9f4" stroke="#1a172f" stroke-width="1"/>
  </g>
</svg>
