<svg xmlns="http://www.w3.org/2000/svg" width="49.432" height="32.959" viewBox="0 0 49.432 32.959">
  <path id="moon-cloud-solid" d="M21.967,80.475a5.475,5.475,0,0,0-2.806.789,6.843,6.843,0,0,0-13.532-.772c-.043,0-.086-.017-.137-.017a5.492,5.492,0,0,0,0,10.984H21.967a5.492,5.492,0,0,0,0-10.984Zm26.541,9.13a12.9,12.9,0,0,1-8.787-23.9.775.775,0,0,0-.24-1.433,16.856,16.856,0,0,0-3-.275A16.459,16.459,0,0,0,20.465,76.708a9.368,9.368,0,0,1,.592,1.081,8.213,8.213,0,0,1,4.891,15.36,16.45,16.45,0,0,0,23.314-2.291A.782.782,0,0,0,48.508,89.605Z" transform="translate(0 -64)" fill="#fff9f4"/>
</svg>
