<svg xmlns="http://www.w3.org/2000/svg" width="41.898" height="32.588" viewBox="0 0 41.898 32.588">
  <g id="shopping-basket-duotone" transform="translate(0 -31.998)">
    <path id="Path_4193" data-name="Path 4193" d="M102.359,32.443a2.328,2.328,0,0,0-3.251.514L91.34,43.636H97.1l5.776-7.942A2.328,2.328,0,0,0,102.359,32.443Zm9.824.514a2.328,2.328,0,1,0-3.765,2.738l5.776,7.942h5.757Z" transform="translate(-84.696 0)" fill="#d8a8ff" opacity="0.4"/>
    <path id="Path_4194" data-name="Path 4194" d="M40.152,192H1.746A1.746,1.746,0,0,0,0,193.746v1.164a1.746,1.746,0,0,0,1.746,1.746h.582l1.9,13.3a3.492,3.492,0,0,0,3.457,3H34.215a3.492,3.492,0,0,0,3.457-3l1.9-13.3h.582A1.746,1.746,0,0,0,41.9,194.91v-1.164A1.746,1.746,0,0,0,40.152,192Zm-25.6,14.548a1.746,1.746,0,0,1-3.492,0V198.4a1.746,1.746,0,0,1,3.492,0Zm8.147,0a1.746,1.746,0,0,1-3.492,0V198.4a1.746,1.746,0,0,1,3.492,0Zm8.147,0a1.746,1.746,0,0,1-3.492,0V198.4a1.746,1.746,0,0,1,3.492,0Z" transform="translate(0 -148.364)" fill="#d8a8ff"/>
  </g>
</svg>
