<svg xmlns="http://www.w3.org/2000/svg" width="45.104" height="36.084" viewBox="0 0 45.104 36.084">
  <path id="truck-solid" d="M43.977,24.807H42.849V17.189a3.383,3.383,0,0,0-.994-2.389L34.815,7.759a3.383,3.383,0,0,0-2.389-.994H29.318V3.383A3.384,3.384,0,0,0,25.935,0H3.383A3.384,3.384,0,0,0,0,3.383V25.935a3.384,3.384,0,0,0,3.383,3.383H4.51a6.766,6.766,0,1,0,13.531,0h9.021a6.766,6.766,0,1,0,13.531,0h3.383A1.131,1.131,0,0,0,45.1,28.19V25.935A1.131,1.131,0,0,0,43.977,24.807ZM11.276,32.7a3.383,3.383,0,1,1,3.383-3.383A3.384,3.384,0,0,1,11.276,32.7Zm22.552,0a3.383,3.383,0,1,1,3.383-3.383A3.384,3.384,0,0,1,33.828,32.7Zm5.638-14.659H29.318V10.149h3.108l7.041,7.041Z" fill="#fff9f4"/>
</svg>
