<svg id="HandOpen" width="32" height="32" xmlns="http://www.w3.org/2000/svg" viewBox="0 0 448 512"><defs><style>.cls-1{fill:#01122b;}.cls-2{fill:#d8a8ff;}</style></defs><title>grabOpen</title><path class="cls-1" d="M404.57,112.64V101.82c0-43.62-40.52-76.7-83-65.55-25.63-49.5-94.09-47.45-118,.75-41.28-10.56-82.41,20.92-82.41,65V228.13A65.45,65.45,0,0,0,59.06,237a67.45,67.45,0,0,0-14.55,93.15l120,168.42A32,32,0,0,0,190.54,512h222.9a32,32,0,0,0,31.18-24.81l30.18-131a203.49,203.49,0,0,0,5.2-45.67V179C480,138.38,444.48,107,404.57,112.64Z" transform="translate(-32 0)"/><path class="cls-2" d="M432,310.56a155.71,155.71,0,0,1-4,34.89L400.71,464H198.79L83.59,302.3C69.15,282,98.61,259.53,113,279.7l27.13,38.08c9,12.62,29,6.28,29-9.29V102c0-25.65,36.57-24.81,36.57.69V256a16,16,0,0,0,16,16h6.86a16,16,0,0,0,16-16V67c0-25.66,36.57-24.81,36.57.69V256a16,16,0,0,0,16,16H304a16,16,0,0,0,16-16V101.12c0-25.67,36.57-24.81,36.57.7V256a16,16,0,0,0,16,16h6.85a16,16,0,0,0,16-16V179.69c0-26.24,36.57-25.64,36.57-.69V310.56Z" transform="translate(-32 0)"/></svg>