<svg width="32" height="32" id="HandShut" xmlns="http://www.w3.org/2000/svg" viewBox="0 0 452.07 395.56"><defs><style>.cls-1{fill:#01122b;}.cls-2{fill:#d8a8ff;}</style></defs><title>grabShut</title><path class="cls-1" d="M391,158.06a65.59,65.59,0,0,0-87.25-20.83,65.59,65.59,0,0,0-95.65,0c-41.64-23.86-96,4.47-97.72,53.69C69.56,181.33,30,211.87,30,253.75V304a100.29,100.29,0,0,0,34.6,75.61l86.27,75.12c3.76,3.27,2.75,4.92,2.75,29.05a28.25,28.25,0,0,0,28.25,28.26H404.34a28.25,28.25,0,0,0,28.25-28.26c0-20.76-.9-27.14,3.52-37.41l37.82-88A99.12,99.12,0,0,0,482,319.07V218C482,171.37,434.08,139.74,391,158.06Z" transform="translate(-29.96 -116.51)"/><path class="cls-2" d="M439.65,319.07A56.89,56.89,0,0,1,435,341.68l-37.82,88a85.06,85.06,0,0,0-7,33.78v6.25H196v-9.09a50.16,50.16,0,0,0-17.3-37.8L92.39,347.69a58,58,0,0,1-20-43.65V253.75c0-29.32,45.91-29.61,45.91.6v36.4a14.11,14.11,0,0,0,4.85,10.65l6.18,5.39a14.12,14.12,0,0,0,23.4-10.66V193.2c0-29.22,45.92-29.77,45.92.6v23.62a14.13,14.13,0,0,0,14.13,14.13h6.18A14.13,14.13,0,0,0,233,217.42V181.09c0-29.25,45.92-29.73,45.92.6v35.73a14.13,14.13,0,0,0,14.12,14.13h6.18a14.13,14.13,0,0,0,14.13-14.13V193.2c0-29.16,45.92-29.82,45.92.6v23.62a14.13,14.13,0,0,0,14.12,14.13h6.18a14.13,14.13,0,0,0,14.13-14.13c0-29.27,45.91-29.68,45.91.6Z" transform="translate(-29.96 -116.51)"/></svg>