<svg width="32" height="32" id="Point" xmlns="http://www.w3.org/2000/svg" viewBox="0 0 448 512"><defs><style>.cls-1{fill:#01122b;}.cls-2{fill:#d8a8ff;}</style></defs><title>point</title><path class="cls-1" d="M390,179.44a65.78,65.78,0,0,0-79.88-19.1,65.7,65.7,0,0,0-56.59-19.63V67.08c0-36.95-29.74-67-66.29-67S121,30.13,121,67.08V228.21a65.47,65.47,0,0,0-62.09,8.87,67.45,67.45,0,0,0-14.55,93.15l109.7,154a66.23,66.23,0,0,0,53.79,27.85H386.14a66.49,66.49,0,0,0,64.56-51.8l27.43-119a68.26,68.26,0,0,0,1.72-15.2v-84C479.85,195.23,433.23,162.8,390,179.44Z" transform="translate(-31.85 -0.08)"/><path class="cls-2" d="M112.84,279.77,140,317.85c9,12.63,29,6.29,29-9.28V67.08c0-25.12,36.57-25.16,36.57,0v175a16,16,0,0,0,16,16h6.85a16,16,0,0,0,16-16v-35c0-25.12,36.57-25.16,36.57,0v35a16,16,0,0,0,16,16h6.86a16,16,0,0,0,16-16v-21c0-25.12,36.57-25.16,36.57,0v21a16,16,0,0,0,16,16h6.86a16,16,0,0,0,16-16c0-25.12,36.57-25.16,36.57,0v84a19.9,19.9,0,0,1-.5,4.42l-27.43,119a18.39,18.39,0,0,1-17.78,14.58H207.85a18.13,18.13,0,0,1-14.69-7.7l-109.72-154c-14.4-20.22,15-42.82,29.4-22.61Z" transform="translate(-31.85 -0.08)"/></svg>